<?xml version="1.0" encoding="UTF-8"?>
<svg width="1980px" height="1598px" viewBox="0 0 1980 1598" version="1.1" xmlns="http://www.w3.org/2000/svg" xmlns:xlink="http://www.w3.org/1999/xlink">
    <!-- Generator: Sketch 43.2 (39069) - http://www.bohemiancoding.com/sketch -->
    <title>Artboard</title>
    <desc>Created with Sketch.</desc>
    <defs></defs>
    <g id="Page-1" stroke="none" stroke-width="1" fill="none" fill-rule="evenodd">
        <g id="Artboard">
            <text id="Decision-Making-with" font-family="Palatino-BoldItalic, Palatino" font-size="100" font-style="italic" font-weight="bold" fill="#000000">
                <tspan x="179" y="1519">D</tspan>
                <tspan x="256.783203" y="1519" font-family="Palatino-Italic, Palatino" font-weight="normal">ecision-Making with </tspan>
                <tspan x="1114.05859" y="1519">D</tspan>
                <tspan x="1191.8418" y="1519" font-family="Palatino-Italic, Palatino" font-weight="normal">iverse </tspan>
                <tspan x="1450.28906" y="1519">D</tspan>
                <tspan x="1528.07227" y="1519" font-family="Palatino-Italic, Palatino" font-weight="normal">atasets</tspan>
            </text>
            <g id="noun-arrow-1098126" transform="translate(825.000000, 367.500000) rotate(90.000000) translate(-825.000000, -367.500000) translate(683.500000, 334.500000)" fill-rule="nonzero" fill="#000000">
                <path d="M30.2575099,65.5189831 C32.1363838,64.6909347 32.9916758,62.5006017 32.1702208,60.619322 L12.2380162,14.5423729 C49.9620281,47.2962712 98.6313166,64.6576271 148.57019,63.1726271 C198.509064,61.6876271 246.059775,41.4639407 281.770348,6.52169492 C285.126079,3.16576271 279.924249,-2.10305085 276.50185,1.25288136 C242.091623,34.9632203 196.229963,54.45 148.080813,55.820339 C99.9316625,57.1891398 53.0353186,40.3385847 16.7682534,8.6359322 L66.4330755,10.045172 L66.4319832,10.0462644 C68.3545376,9.92281922 69.8662945,8.35518219 69.917749,6.4291288 C69.9701823,4.50427795 68.5468489,2.85589998 66.634166,2.62853558 L3.91554941,0.850059305 C2.6451255,0.856614 1.46648083,1.50989151 0.78688933,2.5826432 C0.10743765,3.65648558 0.0222300415,5.00235422 0.559678362,6.15279575 L25.4589244,63.707033 C26.3339034,65.4778466 28.4301448,66.2698746 30.2576201,65.5193763 L30.2575099,65.5189831 Z" id="Shape"></path>
            </g>
            <g id="noun-arrow-1098126" transform="translate(825.000000, 367.500000) rotate(90.000000) translate(-825.000000, -367.500000) translate(683.500000, 334.500000)" fill-rule="nonzero" fill="#000000">
                <path d="M30.2575099,65.5189831 C32.1363838,64.6909347 32.9916758,62.5006017 32.1702208,60.619322 L12.2380162,14.5423729 C49.9620281,47.2962712 98.6313166,64.6576271 148.57019,63.1726271 C198.509064,61.6876271 246.059775,41.4639407 281.770348,6.52169492 C285.126079,3.16576271 279.924249,-2.10305085 276.50185,1.25288136 C242.091623,34.9632203 196.229963,54.45 148.080813,55.820339 C99.9316625,57.1891398 53.0353186,40.3385847 16.7682534,8.6359322 L66.4330755,10.045172 L66.4319832,10.0462644 C68.3545376,9.92281922 69.8662945,8.35518219 69.917749,6.4291288 C69.9701823,4.50427795 68.5468489,2.85589998 66.634166,2.62853558 L3.91554941,0.850059305 C2.6451255,0.856614 1.46648083,1.50989151 0.78688933,2.5826432 C0.10743765,3.65648558 0.0222300415,5.00235422 0.559678362,6.15279575 L25.4589244,63.707033 C26.3339034,65.4778466 28.4301448,66.2698746 30.2576201,65.5193763 L30.2575099,65.5189831 Z" id="Shape"></path>
            </g>
            <g id="noun-arrow-1098126" transform="translate(1136.000000, 367.500000) scale(-1, -1) rotate(90.000000) translate(-1136.000000, -367.500000) translate(994.500000, 334.500000)" fill-rule="nonzero" fill="#000000">
                <path d="M30.2575099,65.5189831 C32.1363838,64.6909347 32.9916758,62.5006017 32.1702208,60.619322 L12.2380162,14.5423729 C49.9620281,47.2962712 98.6313166,64.6576271 148.57019,63.1726271 C198.509064,61.6876271 246.059775,41.4639407 281.770348,6.52169492 C285.126079,3.16576271 279.924249,-2.10305085 276.50185,1.25288136 C242.091623,34.9632203 196.229963,54.45 148.080813,55.820339 C99.9316625,57.1891398 53.0353186,40.3385847 16.7682534,8.6359322 L66.4330755,10.045172 L66.4319832,10.0462644 C68.3545376,9.92281922 69.8662945,8.35518219 69.917749,6.4291288 C69.9701823,4.50427795 68.5468489,2.85589998 66.634166,2.62853558 L3.91554941,0.850059305 C2.6451255,0.856614 1.46648083,1.50989151 0.78688933,2.5826432 C0.10743765,3.65648558 0.0222300415,5.00235422 0.559678362,6.15279575 L25.4589244,63.707033 C26.3339034,65.4778466 28.4301448,66.2698746 30.2576201,65.5193763 L30.2575099,65.5189831 Z" id="Shape"></path>
            </g>
            <g id="noun-world-1938011" transform="translate(870.000000, 52.000000)" fill-rule="nonzero" fill="#000000">
                <path d="M110.002087,0.00250474383 C49.3455408,0.00250474383 0.00208728653,49.3459583 0.00208728653,109.99833 C0.00208728653,170.648615 49.3455408,219.99833 110.002087,219.99833 C170.654459,219.99833 219.997913,170.648615 219.997913,109.99833 C219.997913,49.3480455 170.654459,0.00459203036 110.002087,0.00459203036 L110.002087,0.00250474383 Z M186.666034,86.5455787 C185.46096,88.1778994 185.189446,87.8427856 184.82008,87.9300342 C183.933797,88.1412049 184.82008,90.6426717 184.82008,91.5443795 L184.82008,93.3976603 C184.82008,94.138814 185.345157,95.8387419 184.82008,96.3582676 C184.163732,97.0121727 182.033135,96.3582676 181.110345,96.3582676 L179.261949,96.3582676 L174.816655,96.3582676 L171.852917,96.3582676 L168.889178,96.3582676 C167.776237,96.3582676 165.226617,97.1466983 164.44138,96.3582676 C164.180469,96.0949146 164.70229,95.1425901 164.44138,94.8792372 C164.180469,94.6158843 163.310488,94.9982772 162.962349,94.8792372 C162.400577,94.6786615 161.551803,93.7932011 161.109068,93.3944877 C160.326336,92.6932846 159.115543,90.8294213 158.148461,90.4338805 C157.238529,90.0571879 155.139846,90.7632751 154.214343,90.4338805 C152.471939,89.8166698 151.48292,88.208833 150.373319,84.1352846 C149.260378,80.0561006 155.511592,77.208833 158.148461,76.7237476 C159.060835,76.5631247 160.940207,76.5631247 161.85256,76.7237476 C162.91741,76.9137241 164.874324,77.9500285 165.923603,78.2084972 C167.268108,78.5378918 170.482237,77.9108918 171.392085,78.9496509 C171.571463,79.1551192 171.460573,79.7878216 171.392085,80.062592 C171.180915,80.8771139 170.368835,81.9109886 169.259087,82.6512448 C168.149402,83.3972827 174.535121,82.7327784 176.293034,82.6512448 C177.247801,82.6088478 176.293034,82.6512448 179.628518,80.7979639 C182.960871,78.9495674 180.366416,78.9495674 180.366416,77.8373567 C180.366416,76.7244156 180.738203,74.8767495 180.738203,73.7638083 C180.738203,72.6508672 186.944541,75.757334 188.887596,76.7244156 C189.625493,77.096203 190.372345,77.4655693 191.851334,78.2091651 C193.330364,78.955203 192.524004,81.2781025 191.851334,81.910759 C191.33686,82.3958861 189.117406,82.3322865 189.256837,83.0237002 C189.484309,84.1015958 189.260098,83.0310385 186.665679,86.5451613 L186.666034,86.5455787 Z M8.88975332,109.99833 C8.88975332,97.68 11.112296,85.8734725 15.1645541,74.9444402 C15.1515085,76.386797 15.1091116,77.72074 15.1881989,78.56463 C15.4279028,81.148482 14.9664247,86.3560531 15.1881989,88.9365655 C15.4230186,91.6548387 15.6366315,97.3443643 17.0414797,99.6779507 C17.8299104,100.980063 20.7879503,102.304175 21.8560148,103.379545 C22.5042216,104.038334 23.4565461,105.655104 24.0762615,106.345787 C26.0143488,108.478786 30.3855025,112.272638 32.5948953,114.12093 C34.1187814,115.392046 37.2455784,117.828368 38.8909863,118.935465 C40.8502596,120.258763 45.2213089,122.236717 47.0403791,123.75 C47.7945784,124.377814 48.9784664,125.975047 49.6290319,126.716243 C50.6359806,127.849577 52.9588801,130.413036 53.3331306,131.525142 C53.707381,132.638083 52.956438,133.378423 53.3331306,134.491385 C53.707381,135.604326 55.7719161,134.491385 53.4415713,137.451992 C51.107985,140.4126 49.9983835,140.784345 49.9983835,143.006888 C49.9983835,145.229431 49.0468731,147.568027 49.626596,148.933738 C50.0456814,149.90155 52.3187782,150.684283 52.9645846,151.522391 C53.5711918,152.321425 53.9984385,154.375294 54.5357478,155.223985 C55.8590457,157.320247 59.3160514,160.924156 61.1058996,162.635522 C61.5380306,163.041562 62.7039679,163.576429 62.9624366,164.114552 C63.3635922,164.952723 62.9624366,166.896488 62.9624366,167.821991 C62.9624366,169.578254 62.1903076,173.274192 62.9624366,174.855937 C63.573949,176.103425 66.2979205,177.44459 66.2979205,179.301231 C66.2979205,181.157873 70.3714689,197.817759 70.7432146,200.042806 C70.8858994,200.880977 71.0701672,202.09177 71.1916472,203.349068 C34.649522,188.100397 8.89031898,152.008082 8.89031898,109.997266 L8.88975332,109.99833 Z M110.002087,211.110664 C97.8655598,211.110664 86.2278937,208.95888 75.4428843,205.017666 C75.4722357,203.153782 75.6410137,201.247609 75.5586639,200.048046 C75.432285,198.231459 75.1893186,194.121195 77.4119448,193.008254 C79.6344875,191.901011 78.8966943,192.267101 83.7080359,188.193719 C88.522571,184.120171 89.1815273,185.552049 88.522571,184.120171 C87.3468442,181.56575 95.1881118,176.339393 96.300218,175.973283 C97.409903,175.601495 98.1486146,172.271689 101.111622,167.826395 C104.07536,163.381101 104.07536,162.271499 105.187467,161.158558 C106.297152,160.045617 103.708436,158.938311 105.187467,155.603662 C106.666497,152.271309 105.182575,149.681822 103.336628,146.715579 C101.485789,143.749336 99.9986393,137.827495 98.888829,137.087135 C97.7758879,136.345981 92.5267797,134.661499 90.6628328,133.385541 C89.341977,132.478865 88.8886393,131.53226 85.1893414,130.053188 C81.4877474,128.568438 80.9625861,127.622543 80.0005558,126.34575 C79.2463565,125.351846 78.1048822,124.125503 75.5364761,124.125503 C72.9632693,124.125503 69.0633831,122.90492 66.888848,122.640753 C65.7286089,122.501329 63.3926431,122.640753 62.225015,122.640753 C60.3717342,122.640753 56.4824723,123.460994 54.8216184,122.640753 C53.1583015,121.820512 51.1175197,117.826218 50.3738195,116.718913 C49.6302237,115.605972 44.7210302,110.148761 42.5961725,108.197774 C41.7261915,107.39874 39.4007455,106.302101 38.8920738,105.237167 C38.6939444,104.820524 38.7126966,103.811133 38.8920738,103.383886 C39.2426753,102.539996 40.6401763,101.142558 41.486571,100.795233 C42.0874799,100.547368 42.9656013,100.795233 44.0785634,100.795233 L47.0391706,100.795233 L49.9997778,100.795233 C51.1094628,100.795233 55.1862674,99.6879905 56.2983736,98.9419526 C57.4113148,98.2007989 57.4113148,94.1274175 58.5209163,93.020112 C59.6306013,91.9071708 60.741163,90.0538691 61.8564002,89.6821233 C62.9660852,89.3103359 59.6313528,91.90237 62.9660852,89.3103359 C66.3015691,86.7183435 72.4598992,82.276389 72.3417588,81.5351935 C72.2259791,80.7940398 65.7954021,78.9406964 72.3417588,78.1972049 C78.8906203,77.4617704 84.5091782,76.6048349 88.1562939,74.864852 C89.1608006,74.3846091 90.7482863,73.0164554 91.4861421,71.9042448 C92.2240397,70.7913036 93.3426791,67.8306964 92.5958271,66.3493491 C91.8579296,64.8645996 91.480423,62.2758008 87.781292,59.3154023 C84.0796981,56.3491594 82.9617474,54.3979639 81.4877057,52.6475655 C80.8125937,51.8436262 79.4892958,50.0824991 78.5239676,49.6869583 C77.0946564,49.0933757 73.8332085,49.270315 72.3412161,49.6869583 C71.5527854,49.9030342 71.1124932,50.4223928 69.6333793,51.5353548 C68.154349,52.648296 70.374533,51.5353548 68.151886,52.648296 C65.9293433,53.7612372 65.5573888,53.7612372 64.4477873,54.1330455 C63.3381023,54.504833 60.2103869,55.3536281 58.8928917,54.8684801 C58.033514,54.5602713 56.852089,53.0151992 56.3042389,52.2798273 C55.5663414,51.2908083 54.0816962,48.2062789 55.1912977,47.4652922 C56.3042389,46.7298577 57.3535178,44.5545712 58.1550359,43.6607951 C58.9353262,42.7851157 60.9574268,41.5432429 61.8591345,40.8030911 C62.618218,40.175277 64.0499505,38.8201689 64.8228727,38.2085939 C65.3234875,37.8180417 66.2595102,36.8029317 66.8897664,36.7238444 C69.8299182,36.378148 71.1083812,37.8416907 72.3419676,38.5771252 C73.1173528,39.0410664 74.0215861,40.7654364 74.8172806,41.165778 C75.7345387,41.6297192 77.7810188,41.5375655 78.890829,41.5375655 C80.000514,41.5375655 78.8957212,41.9142581 81.4853262,40.0585351 C84.0739789,38.2019981 85.1869201,40.4303226 84.0739789,38.2052543 C82.9642939,35.9850076 80.0029353,32.6503586 79.2594438,31.5374175 C78.5215463,30.4244763 76.3910947,27.1866774 74.8141497,26.728518 C73.7492996,26.414611 71.4843015,27.4696717 70.3688556,26.728518 C69.2591706,25.9824801 68.9477057,26.3567306 66.8832958,26.728518 C64.8164021,27.0946072 70.0052503,26.7236261 64.8164021,27.0946072 C59.6276165,27.4663947 60.8749789,27.0946072 59.6276165,27.4663947 C58.6149486,27.7696983 58.5097702,28.2075484 55.5540681,28.5793359 C52.6621326,28.9405408 54.6922484,28.9511233 49.6297228,28.9511233 C60.740349,20.6566641 73.6147323,14.6133435 87.5640681,11.4415028 C87.2183717,11.7602941 86.9020017,12.0587135 86.6647398,12.3008805 C86.160848,12.8259583 85.1147626,13.8671594 84.8139011,14.5259279 C84.5815235,15.034704 84.0809087,16.3188653 84.4421137,16.7509753 C85.6577911,18.1770095 89.2591535,16.7509753 90.7407095,20.8245237 C92.2172977,24.8980721 93.0765918,24.2286793 92.2172977,24.8980721 C90.7195027,26.0713567 91.0309676,30.51663 90.3713433,32.3037647 C90.0843414,33.0816129 89.1034837,34.4659848 88.8865937,35.2643719 C88.314218,37.3867249 88.5205046,41.3149981 91.4810909,43.6648653 C94.444829,46.008888 94.7318309,45.107222 94.444829,46.008888 C93.8096677,47.9649051 99.5252844,49.5098937 101.107865,50.8234231 C102.21755,51.7406812 103.058998,52.676704 105.787979,47.4910702 C108.516897,42.3045806 110.739649,40.4512789 111.84925,39.7102922 C112.958935,38.9748577 115.775228,36.6966679 117.038036,35.6417533 C117.939806,34.885112 119.632533,33.4167059 120.37352,32.3037647 C121.108954,31.1965218 125.720522,27.8845617 127.036556,26.0051689 C128.062269,24.5416262 129.79407,21.1171613 129.625209,19.3421328 C129.533074,18.3270228 127.776812,16.3758899 129.625209,15.2685844 C130.948506,14.4752486 132.390863,13.0141063 133.292571,11.6435939 C148.494696,15.2424934 162.387258,22.2609943 174.086499,31.8714877 C172.987417,32.7838615 171.808434,33.6008463 171.109611,34.1576926 C168.510313,36.21726 161.662969,38.2051499 159.63037,40.8207287 C158.802802,41.8855787 158.886774,44.8786224 158.148876,46.0072182 C157.360446,47.2228956 154.317662,48.4011271 153.703582,49.7146565 C153.587803,49.9568235 153.703582,50.2870323 153.703582,50.8006926 L153.703582,51.1912448 L153.703582,51.5866812 C153.703582,52.1011556 153.526651,52.4672657 153.703582,52.6727173 C154.56296,53.6617362 157.579673,53.3209241 158.884228,53.413871 C160.365721,53.5166051 163.340167,53.5638947 164.814209,53.413871 C165.28629,53.3665814 166.282656,53.3217361 166.665047,53.0420835 C167.269212,52.6042334 167.72255,51.0648596 168.149797,50.4475863 C168.893393,49.3664345 170.370043,47.0810019 171.479645,46.374038 C172.127852,45.9679981 173.686742,45.5146603 174.440252,45.6328843 C175.305328,45.7723087 177.306097,46.6161841 177.40399,47.4861651 C177.448834,47.8522543 177.037901,47.8579526 177.40399,48.9709146 C177.775778,50.0781575 177.775778,53.044463 176.666093,54.1574042 C175.553152,55.2646471 171.851558,57.1180114 170.741747,57.8589981 C169.628806,58.6001518 168.563873,58.9238482 167.775505,58.9719393 C166.749791,59.0249376 164.730154,58.6474288 163.704461,58.6001518 C162.59152,58.5471535 160.342886,58.3416831 159.261672,58.6001518 C158.655064,58.7452829 157.42632,59.2222676 157.034119,59.7073947 C156.567736,60.2903738 156.659869,61.1921442 155.54937,62.3018918 C154.439685,63.4115769 154.831865,63.3773245 154.439685,63.414833 C153.877913,63.4621226 152.717673,64.0369488 152.217142,63.7809222 C151.479245,63.4042296 150.928076,61.6243378 150.735649,60.820315 C150.545672,60.0106774 151.173499,58.1997268 150.735649,57.487962 C150.195083,56.6073776 148.043467,55.8719431 147.034055,55.6346812 C145.660203,55.3101708 141.479159,55.6346812 141.479159,56.7476224 C141.479159,57.8605636 142.5921,59.3421195 141.479159,60.0799753 C140.369474,60.821129 136.034264,61.5272163 135.183068,63.0462182 C134.734635,63.8395541 135.552413,65.634871 136.664561,66.3785712 C137.774246,67.1197249 139.256554,67.4915123 140.36866,67.8633207 C141.478345,68.2294099 142.955017,67.8478291 143.704144,68.2294099 C144.41595,68.5954991 145.307117,70.067203 145.552541,70.823907 C145.663428,71.1802068 145.594938,71.9368482 145.552541,72.3086565 C145.409856,73.4476888 145.578632,76.8908767 144.439599,76.7539507 C143.888431,76.6879068 144.439599,75.6410095 142.219353,76.7539507 C139.991801,77.8668918 138.520055,76.7539507 138.145804,77.8668918 C137.771554,78.979833 133.455045,84.0863795 135.182066,84.9008387 C135.76993,85.1780512 135.556317,84.159685 137.032905,86.7541195 C138.511935,89.3427723 138.902487,88.7101366 138.511935,89.3427723 C138.066759,90.0676243 139.255531,90.8218027 139.255531,92.6751252 C139.255531,94.5284478 143.331376,90.8267287 139.255531,94.5284061 C135.181983,98.23 135.284886,98.6679127 133.702931,99.7148956 C132.713913,100.368801 131.843952,100.456049 129.995493,102.675503 C128.147097,104.90055 126.098947,107.397989 125.921945,109.34334 C125.776814,110.97566 127.343095,114.05518 127.775226,115.641935 C128.151918,117.026391 128.888167,120.08723 129.259975,121.19203 C129.626064,122.304972 130.781419,124.611632 131.480222,125.637324 C133.040802,127.917894 136.02341,132.980398 138.514169,134.158463 C139.940203,134.827856 143.239159,134.087529 144.815895,134.158463 C145.839146,134.205753 147.880032,134.714537 148.886939,134.53025 C149.804197,134.356582 151.114491,133.412404 152.594377,134.89634 C154.073408,136.381089 154.073408,137.490837 155.18303,137.862583 C156.292715,138.228672 160.301057,140.884347 159.628324,142.307877 C159.391062,142.806049 159.262235,142.307877 159.628324,144.532924 C160.000112,146.753171 160.021319,152.603209 160.37192,155.269509 C160.651575,157.426093 161.874599,161.618617 162.217875,163.772696 C162.792692,167.35615 162.339361,174.849091 163.702624,178.21818 C164.32474,179.742066 166.291277,182.68226 167.773668,183.40467 C169.271463,184.129522 172.836172,183.847404 174.439209,183.40467 C175.264334,183.172292 176.298188,182.291729 177.036002,181.179622 C177.771436,180.066681 182.736172,172.378787 184.439398,169.330932 C185.952681,166.618294 188.362871,160.859471 189.994294,158.217801 C190.384846,157.585102 191.11214,156.733051 191.479043,155.623304 C191.848389,154.516061 194.062895,145.256169 194.437146,144.144063 C194.811396,143.031121 195.212531,137.536548 196.657393,135.99133 C197.153123,135.466252 197.772797,135.619543 198.884945,134.142934 C199.99463,132.663903 201.460656,131.26874 201.845552,130.069385 C202.187992,129.015139 202.599751,126.43855 201.845552,125.624091 C201.025311,124.737808 197.983237,125.995879 197.031017,125.252304 C196.137408,124.556006 196.656766,124.139362 194.439024,121.55071 C192.216482,118.956213 192.988527,119.325662 192.216482,118.956213 C190.613508,118.184083 188.414489,115.062171 187.768683,113.401317 C187.272952,112.108994 187.394432,107.495757 187.768683,107.853727 C188.142933,108.219816 190.020656,105.372569 190.732421,104.510729 C191.069977,104.109573 191.697791,102.955053 192.217171,103.025979 C193.572279,103.226555 194.350169,106.564556 194.811668,107.851159 C194.972291,108.293894 195.312283,109.246218 195.183455,109.693837 C194.903801,110.621698 193.701962,111.178586 196.29314,113.395431 C198.885133,115.620478 201.84574,115.989928 201.84574,117.102869 C201.84574,118.210112 203.00026,119.133089 203.699021,119.323116 C204.323579,119.496784 205.713732,119.610118 206.287673,119.323116 C206.883698,119.02551 207.397358,117.838366 208.510216,117.838366 C209.623074,117.838366 207.772319,118.210154 209.623157,117.838366 C209.907717,117.782924 210.321918,117.654098 210.794,117.513856 C206.947131,169.758638 163.22474,211.109871 110.003108,211.109871 L110.002087,211.110664 Z" id="Shape"></path>
            </g>
            <g id="noun-plug-in-5263410" transform="translate(934.000000, 694.000000)" fill-rule="nonzero" fill="#000000">
                <path d="M13.9666895,50.4 L13.9666895,12.5382979 C13.9666895,9.10085106 15.3787504,5.96744681 17.648207,3.69680851 C19.9384844,1.4112766 23.0735117,0 26.5131855,0 C29.9677617,0 33.1093887,1.41123404 35.3781641,3.6793617 C37.6501328,5.95 39.0622363,9.08914894 39.0622363,12.5391489 L39.0622363,50.4008511 L69.9335059,50.4008511 L69.9335059,12.5391489 C69.9335059,9.08914894 71.3455668,5.95 73.6175781,3.6793617 C75.8869922,1.4112766 79.0279805,7.55896527e-15 82.480002,7.55896527e-15 C85.9228691,7.55896527e-15 89.0578965,1.41123404 91.3298652,3.6793617 C93.6167363,5.96829787 95.0288398,9.10148936 95.0288398,12.5391489 L95.0288398,50.4008511 L103.715842,50.4008511 C106.537494,50.4008511 108.82692,52.6897872 108.82692,55.5089362 L108.82692,90.16 C108.82692,105.093617 102.713766,118.672766 92.8709805,128.508936 C84.1633281,137.211489 72.5250234,142.99617 59.6110781,144.214468 L59.6110781,156.861489 C59.6110781,158.625957 60.329584,160.226596 61.4755316,161.381915 C62.6314639,162.528021 64.2331039,163.245277 65.9986059,163.245277 L90.6364379,163.245277 C95.5669848,163.245277 100.062596,165.274872 103.324293,168.532085 C106.589184,171.776766 108.6142,176.273149 108.6142,181.212511 C108.6142,186.146128 106.589248,190.636553 103.336854,193.890383 C100.081118,197.162511 95.5821,199.185489 90.6366508,199.185489 L65.8774711,199.601872 C64.1518861,199.6293 62.5768148,200.36483 61.435934,201.525915 C60.3107645,202.672021 59.613058,204.255277 59.613058,206.007191 L59.613058,224.679957 C59.613058,227.499957 57.3227807,229.788043 54.5019799,229.788043 C51.6803275,229.788043 49.3909018,227.499106 49.3909018,224.679957 L49.3909018,206.007191 C49.3909018,201.50166 51.2162686,197.391872 54.1700834,194.384851 C57.1056322,191.393574 61.1946225,189.505277 65.7202514,189.427191 L90.6369701,188.968426 C92.7675795,188.968426 94.7102064,188.090766 96.1140072,186.688638 C97.5169139,185.295681 98.391724,183.350128 98.391724,181.212468 C98.391724,179.086468 97.5135502,177.14417 96.110601,175.742043 C94.7168273,174.330809 92.7767338,173.462255 90.6369701,173.462255 L65.9991381,173.462255 C61.4428529,173.462255 57.2880795,171.595574 54.2792963,168.59183 C51.2556107,165.567362 49.3877084,161.420979 49.3877084,156.861404 L49.3877084,144.214383 C36.4703568,142.995957 24.8329037,137.212255 16.1235482,128.508851 C6.28076309,118.67183 0.167608789,105.093957 0.167608789,90.1599149 L0.167608789,55.5088511 C0.167608789,52.6888511 2.45788613,50.400766 5.27868691,50.400766 L13.9666895,50.4 Z M54.5,133.919149 C66.7203477,133.919149 76.7896484,130.143404 85.6480273,121.289574 C93.6380254,113.304255 98.6043379,102.279362 98.6043379,90.1597872 L98.6043379,74.846383 L10.3909785,74.846383 L10.3909785,90.1597872 C10.3909785,102.279149 15.357291,113.304468 23.3472891,121.289574 C32.1914043,130.128511 42.2055664,133.919149 54.4974453,133.919149 L54.5,133.919149 Z M53.6941664,84.7319149 C55.0579863,82.2776596 58.1631664,81.3934043 60.6188598,82.7563404 C63.0745531,84.1193617 63.9593266,87.2227234 62.5955918,89.6769787 L57.3665723,99.0286809 L59.8314199,98.5341702 C62.5864375,97.9856383 65.2718398,99.7708723 65.8206719,102.523532 C66.0651555,103.756915 65.8447881,104.972043 65.2776305,105.99183 L54.6622652,124.986936 C53.2984453,127.441191 50.1932652,128.325447 47.7375719,126.962511 C45.2818785,125.599574 44.3971051,122.496128 45.7608398,120.041872 L50.986666,110.693362 L48.6056973,111.172915 C47.4381199,111.426404 46.1766152,111.272649 45.0514883,110.648489 C42.5957949,109.285468 41.7110215,106.182106 43.0747562,103.727851 L53.6926762,84.7327447 L53.6941664,84.7319149 Z M10.3922133,64.6297872 L98.6055727,64.6297872 L98.6055727,60.616383 L10.3922133,60.616383 L10.3922133,64.6297872 Z M80.1564711,50.3993617 L84.8060023,50.3993617 L84.8060023,12.5376596 C84.8060023,11.8985319 84.5465312,11.307617 84.1332254,10.8878936 C83.7140863,10.4748298 83.1219949,10.2155106 82.4824928,10.2155106 C81.8429906,10.2155106 81.2608625,10.4781489 80.8409145,10.8970213 C80.4184543,11.319234 80.1556621,11.9010213 80.1556621,12.5376383 L80.1556621,50.3993404 L80.1564711,50.3993617 Z M24.1896547,50.3993617 L28.8391859,50.3993617 L28.8391859,12.5376596 C28.8391859,11.9010213 28.5763937,11.319234 28.1539336,10.8970426 C27.7347945,10.4781489 27.1518574,10.2155319 26.5156764,10.2155319 C25.8728531,10.2155319 25.2815707,10.4748511 24.8624529,10.8879149 C24.4491471,11.3068085 24.189676,11.8985532 24.189676,12.5376809 L24.1896547,50.3993617 Z" id="Shape"></path>
            </g>
            <g id="noun-plug-in-5263410" transform="translate(388.500000, 1034.000000) scale(-1, -1) translate(-388.500000, -1034.000000) translate(334.000000, 919.000000)" fill-rule="nonzero" fill="#E8B4B4">
                <path d="M13.9666895,50.4 L13.9666895,12.5382979 C13.9666895,9.10085106 15.3787504,5.96744681 17.648207,3.69680851 C19.9384844,1.4112766 23.0735117,0 26.5131855,0 C29.9677617,0 33.1093887,1.41123404 35.3781641,3.6793617 C37.6501328,5.95 39.0622363,9.08914894 39.0622363,12.5391489 L39.0622363,50.4008511 L69.9335059,50.4008511 L69.9335059,12.5391489 C69.9335059,9.08914894 71.3455668,5.95 73.6175781,3.6793617 C75.8869922,1.4112766 79.0279805,7.55896527e-15 82.480002,7.55896527e-15 C85.9228691,7.55896527e-15 89.0578965,1.41123404 91.3298652,3.6793617 C93.6167363,5.96829787 95.0288398,9.10148936 95.0288398,12.5391489 L95.0288398,50.4008511 L103.715842,50.4008511 C106.537494,50.4008511 108.82692,52.6897872 108.82692,55.5089362 L108.82692,90.16 C108.82692,105.093617 102.713766,118.672766 92.8709805,128.508936 C84.1633281,137.211489 72.5250234,142.99617 59.6110781,144.214468 L59.6110781,156.861489 C59.6110781,158.625957 60.329584,160.226596 61.4755316,161.381915 C62.6314639,162.528021 64.2331039,163.245277 65.9986059,163.245277 L90.6364379,163.245277 C95.5669848,163.245277 100.062596,165.274872 103.324293,168.532085 C106.589184,171.776766 108.6142,176.273149 108.6142,181.212511 C108.6142,186.146128 106.589248,190.636553 103.336854,193.890383 C100.081118,197.162511 95.5821,199.185489 90.6366508,199.185489 L65.8774711,199.601872 C64.1518861,199.6293 62.5768148,200.36483 61.435934,201.525915 C60.3107645,202.672021 59.613058,204.255277 59.613058,206.007191 L59.613058,224.679957 C59.613058,227.499957 57.3227807,229.788043 54.5019799,229.788043 C51.6803275,229.788043 49.3909018,227.499106 49.3909018,224.679957 L49.3909018,206.007191 C49.3909018,201.50166 51.2162686,197.391872 54.1700834,194.384851 C57.1056322,191.393574 61.1946225,189.505277 65.7202514,189.427191 L90.6369701,188.968426 C92.7675795,188.968426 94.7102064,188.090766 96.1140072,186.688638 C97.5169139,185.295681 98.391724,183.350128 98.391724,181.212468 C98.391724,179.086468 97.5135502,177.14417 96.110601,175.742043 C94.7168273,174.330809 92.7767338,173.462255 90.6369701,173.462255 L65.9991381,173.462255 C61.4428529,173.462255 57.2880795,171.595574 54.2792963,168.59183 C51.2556107,165.567362 49.3877084,161.420979 49.3877084,156.861404 L49.3877084,144.214383 C36.4703568,142.995957 24.8329037,137.212255 16.1235482,128.508851 C6.28076309,118.67183 0.167608789,105.093957 0.167608789,90.1599149 L0.167608789,55.5088511 C0.167608789,52.6888511 2.45788613,50.400766 5.27868691,50.400766 L13.9666895,50.4 Z M54.5,133.919149 C66.7203477,133.919149 76.7896484,130.143404 85.6480273,121.289574 C93.6380254,113.304255 98.6043379,102.279362 98.6043379,90.1597872 L98.6043379,74.846383 L10.3909785,74.846383 L10.3909785,90.1597872 C10.3909785,102.279149 15.357291,113.304468 23.3472891,121.289574 C32.1914043,130.128511 42.2055664,133.919149 54.4974453,133.919149 L54.5,133.919149 Z M53.6941664,84.7319149 C55.0579863,82.2776596 58.1631664,81.3934043 60.6188598,82.7563404 C63.0745531,84.1193617 63.9593266,87.2227234 62.5955918,89.6769787 L57.3665723,99.0286809 L59.8314199,98.5341702 C62.5864375,97.9856383 65.2718398,99.7708723 65.8206719,102.523532 C66.0651555,103.756915 65.8447881,104.972043 65.2776305,105.99183 L54.6622652,124.986936 C53.2984453,127.441191 50.1932652,128.325447 47.7375719,126.962511 C45.2818785,125.599574 44.3971051,122.496128 45.7608398,120.041872 L50.986666,110.693362 L48.6056973,111.172915 C47.4381199,111.426404 46.1766152,111.272649 45.0514883,110.648489 C42.5957949,109.285468 41.7110215,106.182106 43.0747562,103.727851 L53.6926762,84.7327447 L53.6941664,84.7319149 Z M10.3922133,64.6297872 L98.6055727,64.6297872 L98.6055727,60.616383 L10.3922133,60.616383 L10.3922133,64.6297872 Z M80.1564711,50.3993617 L84.8060023,50.3993617 L84.8060023,12.5376596 C84.8060023,11.8985319 84.5465312,11.307617 84.1332254,10.8878936 C83.7140863,10.4748298 83.1219949,10.2155106 82.4824928,10.2155106 C81.8429906,10.2155106 81.2608625,10.4781489 80.8409145,10.8970213 C80.4184543,11.319234 80.1556621,11.9010213 80.1556621,12.5376383 L80.1556621,50.3993404 L80.1564711,50.3993617 Z M24.1896547,50.3993617 L28.8391859,50.3993617 L28.8391859,12.5376596 C28.8391859,11.9010213 28.5763937,11.319234 28.1539336,10.8970426 C27.7347945,10.4781489 27.1518574,10.2155319 26.5156764,10.2155319 C25.8728531,10.2155319 25.2815707,10.4748511 24.8624529,10.8879149 C24.4491471,11.3068085 24.189676,11.8985532 24.189676,12.5376809 L24.1896547,50.3993617 Z" id="Shape"></path>
            </g>
            <g id="noun-plug-in-5263410" transform="translate(588.500000, 1034.000000) scale(-1, -1) translate(-588.500000, -1034.000000) translate(534.000000, 919.000000)" fill-rule="nonzero" fill="#E8C7B4">
                <path d="M13.9666895,50.4 L13.9666895,12.5382979 C13.9666895,9.10085106 15.3787504,5.96744681 17.648207,3.69680851 C19.9384844,1.4112766 23.0735117,0 26.5131855,0 C29.9677617,0 33.1093887,1.41123404 35.3781641,3.6793617 C37.6501328,5.95 39.0622363,9.08914894 39.0622363,12.5391489 L39.0622363,50.4008511 L69.9335059,50.4008511 L69.9335059,12.5391489 C69.9335059,9.08914894 71.3455668,5.95 73.6175781,3.6793617 C75.8869922,1.4112766 79.0279805,7.55896527e-15 82.480002,7.55896527e-15 C85.9228691,7.55896527e-15 89.0578965,1.41123404 91.3298652,3.6793617 C93.6167363,5.96829787 95.0288398,9.10148936 95.0288398,12.5391489 L95.0288398,50.4008511 L103.715842,50.4008511 C106.537494,50.4008511 108.82692,52.6897872 108.82692,55.5089362 L108.82692,90.16 C108.82692,105.093617 102.713766,118.672766 92.8709805,128.508936 C84.1633281,137.211489 72.5250234,142.99617 59.6110781,144.214468 L59.6110781,156.861489 C59.6110781,158.625957 60.329584,160.226596 61.4755316,161.381915 C62.6314639,162.528021 64.2331039,163.245277 65.9986059,163.245277 L90.6364379,163.245277 C95.5669848,163.245277 100.062596,165.274872 103.324293,168.532085 C106.589184,171.776766 108.6142,176.273149 108.6142,181.212511 C108.6142,186.146128 106.589248,190.636553 103.336854,193.890383 C100.081118,197.162511 95.5821,199.185489 90.6366508,199.185489 L65.8774711,199.601872 C64.1518861,199.6293 62.5768148,200.36483 61.435934,201.525915 C60.3107645,202.672021 59.613058,204.255277 59.613058,206.007191 L59.613058,224.679957 C59.613058,227.499957 57.3227807,229.788043 54.5019799,229.788043 C51.6803275,229.788043 49.3909018,227.499106 49.3909018,224.679957 L49.3909018,206.007191 C49.3909018,201.50166 51.2162686,197.391872 54.1700834,194.384851 C57.1056322,191.393574 61.1946225,189.505277 65.7202514,189.427191 L90.6369701,188.968426 C92.7675795,188.968426 94.7102064,188.090766 96.1140072,186.688638 C97.5169139,185.295681 98.391724,183.350128 98.391724,181.212468 C98.391724,179.086468 97.5135502,177.14417 96.110601,175.742043 C94.7168273,174.330809 92.7767338,173.462255 90.6369701,173.462255 L65.9991381,173.462255 C61.4428529,173.462255 57.2880795,171.595574 54.2792963,168.59183 C51.2556107,165.567362 49.3877084,161.420979 49.3877084,156.861404 L49.3877084,144.214383 C36.4703568,142.995957 24.8329037,137.212255 16.1235482,128.508851 C6.28076309,118.67183 0.167608789,105.093957 0.167608789,90.1599149 L0.167608789,55.5088511 C0.167608789,52.6888511 2.45788613,50.400766 5.27868691,50.400766 L13.9666895,50.4 Z M54.5,133.919149 C66.7203477,133.919149 76.7896484,130.143404 85.6480273,121.289574 C93.6380254,113.304255 98.6043379,102.279362 98.6043379,90.1597872 L98.6043379,74.846383 L10.3909785,74.846383 L10.3909785,90.1597872 C10.3909785,102.279149 15.357291,113.304468 23.3472891,121.289574 C32.1914043,130.128511 42.2055664,133.919149 54.4974453,133.919149 L54.5,133.919149 Z M53.6941664,84.7319149 C55.0579863,82.2776596 58.1631664,81.3934043 60.6188598,82.7563404 C63.0745531,84.1193617 63.9593266,87.2227234 62.5955918,89.6769787 L57.3665723,99.0286809 L59.8314199,98.5341702 C62.5864375,97.9856383 65.2718398,99.7708723 65.8206719,102.523532 C66.0651555,103.756915 65.8447881,104.972043 65.2776305,105.99183 L54.6622652,124.986936 C53.2984453,127.441191 50.1932652,128.325447 47.7375719,126.962511 C45.2818785,125.599574 44.3971051,122.496128 45.7608398,120.041872 L50.986666,110.693362 L48.6056973,111.172915 C47.4381199,111.426404 46.1766152,111.272649 45.0514883,110.648489 C42.5957949,109.285468 41.7110215,106.182106 43.0747562,103.727851 L53.6926762,84.7327447 L53.6941664,84.7319149 Z M10.3922133,64.6297872 L98.6055727,64.6297872 L98.6055727,60.616383 L10.3922133,60.616383 L10.3922133,64.6297872 Z M80.1564711,50.3993617 L84.8060023,50.3993617 L84.8060023,12.5376596 C84.8060023,11.8985319 84.5465312,11.307617 84.1332254,10.8878936 C83.7140863,10.4748298 83.1219949,10.2155106 82.4824928,10.2155106 C81.8429906,10.2155106 81.2608625,10.4781489 80.8409145,10.8970213 C80.4184543,11.319234 80.1556621,11.9010213 80.1556621,12.5376383 L80.1556621,50.3993404 L80.1564711,50.3993617 Z M24.1896547,50.3993617 L28.8391859,50.3993617 L28.8391859,12.5376596 C28.8391859,11.9010213 28.5763937,11.319234 28.1539336,10.8970426 C27.7347945,10.4781489 27.1518574,10.2155319 26.5156764,10.2155319 C25.8728531,10.2155319 25.2815707,10.4748511 24.8624529,10.8879149 C24.4491471,11.3068085 24.189676,11.8985532 24.189676,12.5376809 L24.1896547,50.3993617 Z" id="Shape"></path>
            </g>
            <g id="noun-plug-in-5263410" transform="translate(788.500000, 1034.000000) scale(-1, -1) translate(-788.500000, -1034.000000) translate(734.000000, 919.000000)" fill-rule="nonzero" fill="#E8DAB4">
                <path d="M13.9666895,50.4 L13.9666895,12.5382979 C13.9666895,9.10085106 15.3787504,5.96744681 17.648207,3.69680851 C19.9384844,1.4112766 23.0735117,0 26.5131855,0 C29.9677617,0 33.1093887,1.41123404 35.3781641,3.6793617 C37.6501328,5.95 39.0622363,9.08914894 39.0622363,12.5391489 L39.0622363,50.4008511 L69.9335059,50.4008511 L69.9335059,12.5391489 C69.9335059,9.08914894 71.3455668,5.95 73.6175781,3.6793617 C75.8869922,1.4112766 79.0279805,7.55896527e-15 82.480002,7.55896527e-15 C85.9228691,7.55896527e-15 89.0578965,1.41123404 91.3298652,3.6793617 C93.6167363,5.96829787 95.0288398,9.10148936 95.0288398,12.5391489 L95.0288398,50.4008511 L103.715842,50.4008511 C106.537494,50.4008511 108.82692,52.6897872 108.82692,55.5089362 L108.82692,90.16 C108.82692,105.093617 102.713766,118.672766 92.8709805,128.508936 C84.1633281,137.211489 72.5250234,142.99617 59.6110781,144.214468 L59.6110781,156.861489 C59.6110781,158.625957 60.329584,160.226596 61.4755316,161.381915 C62.6314639,162.528021 64.2331039,163.245277 65.9986059,163.245277 L90.6364379,163.245277 C95.5669848,163.245277 100.062596,165.274872 103.324293,168.532085 C106.589184,171.776766 108.6142,176.273149 108.6142,181.212511 C108.6142,186.146128 106.589248,190.636553 103.336854,193.890383 C100.081118,197.162511 95.5821,199.185489 90.6366508,199.185489 L65.8774711,199.601872 C64.1518861,199.6293 62.5768148,200.36483 61.435934,201.525915 C60.3107645,202.672021 59.613058,204.255277 59.613058,206.007191 L59.613058,224.679957 C59.613058,227.499957 57.3227807,229.788043 54.5019799,229.788043 C51.6803275,229.788043 49.3909018,227.499106 49.3909018,224.679957 L49.3909018,206.007191 C49.3909018,201.50166 51.2162686,197.391872 54.1700834,194.384851 C57.1056322,191.393574 61.1946225,189.505277 65.7202514,189.427191 L90.6369701,188.968426 C92.7675795,188.968426 94.7102064,188.090766 96.1140072,186.688638 C97.5169139,185.295681 98.391724,183.350128 98.391724,181.212468 C98.391724,179.086468 97.5135502,177.14417 96.110601,175.742043 C94.7168273,174.330809 92.7767338,173.462255 90.6369701,173.462255 L65.9991381,173.462255 C61.4428529,173.462255 57.2880795,171.595574 54.2792963,168.59183 C51.2556107,165.567362 49.3877084,161.420979 49.3877084,156.861404 L49.3877084,144.214383 C36.4703568,142.995957 24.8329037,137.212255 16.1235482,128.508851 C6.28076309,118.67183 0.167608789,105.093957 0.167608789,90.1599149 L0.167608789,55.5088511 C0.167608789,52.6888511 2.45788613,50.400766 5.27868691,50.400766 L13.9666895,50.4 Z M54.5,133.919149 C66.7203477,133.919149 76.7896484,130.143404 85.6480273,121.289574 C93.6380254,113.304255 98.6043379,102.279362 98.6043379,90.1597872 L98.6043379,74.846383 L10.3909785,74.846383 L10.3909785,90.1597872 C10.3909785,102.279149 15.357291,113.304468 23.3472891,121.289574 C32.1914043,130.128511 42.2055664,133.919149 54.4974453,133.919149 L54.5,133.919149 Z M53.6941664,84.7319149 C55.0579863,82.2776596 58.1631664,81.3934043 60.6188598,82.7563404 C63.0745531,84.1193617 63.9593266,87.2227234 62.5955918,89.6769787 L57.3665723,99.0286809 L59.8314199,98.5341702 C62.5864375,97.9856383 65.2718398,99.7708723 65.8206719,102.523532 C66.0651555,103.756915 65.8447881,104.972043 65.2776305,105.99183 L54.6622652,124.986936 C53.2984453,127.441191 50.1932652,128.325447 47.7375719,126.962511 C45.2818785,125.599574 44.3971051,122.496128 45.7608398,120.041872 L50.986666,110.693362 L48.6056973,111.172915 C47.4381199,111.426404 46.1766152,111.272649 45.0514883,110.648489 C42.5957949,109.285468 41.7110215,106.182106 43.0747562,103.727851 L53.6926762,84.7327447 L53.6941664,84.7319149 Z M10.3922133,64.6297872 L98.6055727,64.6297872 L98.6055727,60.616383 L10.3922133,60.616383 L10.3922133,64.6297872 Z M80.1564711,50.3993617 L84.8060023,50.3993617 L84.8060023,12.5376596 C84.8060023,11.8985319 84.5465312,11.307617 84.1332254,10.8878936 C83.7140863,10.4748298 83.1219949,10.2155106 82.4824928,10.2155106 C81.8429906,10.2155106 81.2608625,10.4781489 80.8409145,10.8970213 C80.4184543,11.319234 80.1556621,11.9010213 80.1556621,12.5376383 L80.1556621,50.3993404 L80.1564711,50.3993617 Z M24.1896547,50.3993617 L28.8391859,50.3993617 L28.8391859,12.5376596 C28.8391859,11.9010213 28.5763937,11.319234 28.1539336,10.8970426 C27.7347945,10.4781489 27.1518574,10.2155319 26.5156764,10.2155319 C25.8728531,10.2155319 25.2815707,10.4748511 24.8624529,10.8879149 C24.4491471,11.3068085 24.189676,11.8985532 24.189676,12.5376809 L24.1896547,50.3993617 Z" id="Shape"></path>
            </g>
            <g id="noun-plug-in-5263410" transform="translate(988.500000, 1034.000000) scale(-1, -1) translate(-988.500000, -1034.000000) translate(934.000000, 919.000000)" fill-rule="nonzero" fill="#B4E8B7">
                <path d="M13.9666895,50.4 L13.9666895,12.5382979 C13.9666895,9.10085106 15.3787504,5.96744681 17.648207,3.69680851 C19.9384844,1.4112766 23.0735117,0 26.5131855,0 C29.9677617,0 33.1093887,1.41123404 35.3781641,3.6793617 C37.6501328,5.95 39.0622363,9.08914894 39.0622363,12.5391489 L39.0622363,50.4008511 L69.9335059,50.4008511 L69.9335059,12.5391489 C69.9335059,9.08914894 71.3455668,5.95 73.6175781,3.6793617 C75.8869922,1.4112766 79.0279805,7.55896527e-15 82.480002,7.55896527e-15 C85.9228691,7.55896527e-15 89.0578965,1.41123404 91.3298652,3.6793617 C93.6167363,5.96829787 95.0288398,9.10148936 95.0288398,12.5391489 L95.0288398,50.4008511 L103.715842,50.4008511 C106.537494,50.4008511 108.82692,52.6897872 108.82692,55.5089362 L108.82692,90.16 C108.82692,105.093617 102.713766,118.672766 92.8709805,128.508936 C84.1633281,137.211489 72.5250234,142.99617 59.6110781,144.214468 L59.6110781,156.861489 C59.6110781,158.625957 60.329584,160.226596 61.4755316,161.381915 C62.6314639,162.528021 64.2331039,163.245277 65.9986059,163.245277 L90.6364379,163.245277 C95.5669848,163.245277 100.062596,165.274872 103.324293,168.532085 C106.589184,171.776766 108.6142,176.273149 108.6142,181.212511 C108.6142,186.146128 106.589248,190.636553 103.336854,193.890383 C100.081118,197.162511 95.5821,199.185489 90.6366508,199.185489 L65.8774711,199.601872 C64.1518861,199.6293 62.5768148,200.36483 61.435934,201.525915 C60.3107645,202.672021 59.613058,204.255277 59.613058,206.007191 L59.613058,224.679957 C59.613058,227.499957 57.3227807,229.788043 54.5019799,229.788043 C51.6803275,229.788043 49.3909018,227.499106 49.3909018,224.679957 L49.3909018,206.007191 C49.3909018,201.50166 51.2162686,197.391872 54.1700834,194.384851 C57.1056322,191.393574 61.1946225,189.505277 65.7202514,189.427191 L90.6369701,188.968426 C92.7675795,188.968426 94.7102064,188.090766 96.1140072,186.688638 C97.5169139,185.295681 98.391724,183.350128 98.391724,181.212468 C98.391724,179.086468 97.5135502,177.14417 96.110601,175.742043 C94.7168273,174.330809 92.7767338,173.462255 90.6369701,173.462255 L65.9991381,173.462255 C61.4428529,173.462255 57.2880795,171.595574 54.2792963,168.59183 C51.2556107,165.567362 49.3877084,161.420979 49.3877084,156.861404 L49.3877084,144.214383 C36.4703568,142.995957 24.8329037,137.212255 16.1235482,128.508851 C6.28076309,118.67183 0.167608789,105.093957 0.167608789,90.1599149 L0.167608789,55.5088511 C0.167608789,52.6888511 2.45788613,50.400766 5.27868691,50.400766 L13.9666895,50.4 Z M54.5,133.919149 C66.7203477,133.919149 76.7896484,130.143404 85.6480273,121.289574 C93.6380254,113.304255 98.6043379,102.279362 98.6043379,90.1597872 L98.6043379,74.846383 L10.3909785,74.846383 L10.3909785,90.1597872 C10.3909785,102.279149 15.357291,113.304468 23.3472891,121.289574 C32.1914043,130.128511 42.2055664,133.919149 54.4974453,133.919149 L54.5,133.919149 Z M53.6941664,84.7319149 C55.0579863,82.2776596 58.1631664,81.3934043 60.6188598,82.7563404 C63.0745531,84.1193617 63.9593266,87.2227234 62.5955918,89.6769787 L57.3665723,99.0286809 L59.8314199,98.5341702 C62.5864375,97.9856383 65.2718398,99.7708723 65.8206719,102.523532 C66.0651555,103.756915 65.8447881,104.972043 65.2776305,105.99183 L54.6622652,124.986936 C53.2984453,127.441191 50.1932652,128.325447 47.7375719,126.962511 C45.2818785,125.599574 44.3971051,122.496128 45.7608398,120.041872 L50.986666,110.693362 L48.6056973,111.172915 C47.4381199,111.426404 46.1766152,111.272649 45.0514883,110.648489 C42.5957949,109.285468 41.7110215,106.182106 43.0747562,103.727851 L53.6926762,84.7327447 L53.6941664,84.7319149 Z M10.3922133,64.6297872 L98.6055727,64.6297872 L98.6055727,60.616383 L10.3922133,60.616383 L10.3922133,64.6297872 Z M80.1564711,50.3993617 L84.8060023,50.3993617 L84.8060023,12.5376596 C84.8060023,11.8985319 84.5465312,11.307617 84.1332254,10.8878936 C83.7140863,10.4748298 83.1219949,10.2155106 82.4824928,10.2155106 C81.8429906,10.2155106 81.2608625,10.4781489 80.8409145,10.8970213 C80.4184543,11.319234 80.1556621,11.9010213 80.1556621,12.5376383 L80.1556621,50.3993404 L80.1564711,50.3993617 Z M24.1896547,50.3993617 L28.8391859,50.3993617 L28.8391859,12.5376596 C28.8391859,11.9010213 28.5763937,11.319234 28.1539336,10.8970426 C27.7347945,10.4781489 27.1518574,10.2155319 26.5156764,10.2155319 C25.8728531,10.2155319 25.2815707,10.4748511 24.8624529,10.8879149 C24.4491471,11.3068085 24.189676,11.8985532 24.189676,12.5376809 L24.1896547,50.3993617 Z" id="Shape"></path>
            </g>
            <g id="noun-plug-in-5263410" transform="translate(1188.500000, 1034.000000) scale(-1, -1) translate(-1188.500000, -1034.000000) translate(1134.000000, 919.000000)" fill-rule="nonzero" fill="#B4DDE8">
                <path d="M13.9666895,50.4 L13.9666895,12.5382979 C13.9666895,9.10085106 15.3787504,5.96744681 17.648207,3.69680851 C19.9384844,1.4112766 23.0735117,0 26.5131855,0 C29.9677617,0 33.1093887,1.41123404 35.3781641,3.6793617 C37.6501328,5.95 39.0622363,9.08914894 39.0622363,12.5391489 L39.0622363,50.4008511 L69.9335059,50.4008511 L69.9335059,12.5391489 C69.9335059,9.08914894 71.3455668,5.95 73.6175781,3.6793617 C75.8869922,1.4112766 79.0279805,7.55896527e-15 82.480002,7.55896527e-15 C85.9228691,7.55896527e-15 89.0578965,1.41123404 91.3298652,3.6793617 C93.6167363,5.96829787 95.0288398,9.10148936 95.0288398,12.5391489 L95.0288398,50.4008511 L103.715842,50.4008511 C106.537494,50.4008511 108.82692,52.6897872 108.82692,55.5089362 L108.82692,90.16 C108.82692,105.093617 102.713766,118.672766 92.8709805,128.508936 C84.1633281,137.211489 72.5250234,142.99617 59.6110781,144.214468 L59.6110781,156.861489 C59.6110781,158.625957 60.329584,160.226596 61.4755316,161.381915 C62.6314639,162.528021 64.2331039,163.245277 65.9986059,163.245277 L90.6364379,163.245277 C95.5669848,163.245277 100.062596,165.274872 103.324293,168.532085 C106.589184,171.776766 108.6142,176.273149 108.6142,181.212511 C108.6142,186.146128 106.589248,190.636553 103.336854,193.890383 C100.081118,197.162511 95.5821,199.185489 90.6366508,199.185489 L65.8774711,199.601872 C64.1518861,199.6293 62.5768148,200.36483 61.435934,201.525915 C60.3107645,202.672021 59.613058,204.255277 59.613058,206.007191 L59.613058,224.679957 C59.613058,227.499957 57.3227807,229.788043 54.5019799,229.788043 C51.6803275,229.788043 49.3909018,227.499106 49.3909018,224.679957 L49.3909018,206.007191 C49.3909018,201.50166 51.2162686,197.391872 54.1700834,194.384851 C57.1056322,191.393574 61.1946225,189.505277 65.7202514,189.427191 L90.6369701,188.968426 C92.7675795,188.968426 94.7102064,188.090766 96.1140072,186.688638 C97.5169139,185.295681 98.391724,183.350128 98.391724,181.212468 C98.391724,179.086468 97.5135502,177.14417 96.110601,175.742043 C94.7168273,174.330809 92.7767338,173.462255 90.6369701,173.462255 L65.9991381,173.462255 C61.4428529,173.462255 57.2880795,171.595574 54.2792963,168.59183 C51.2556107,165.567362 49.3877084,161.420979 49.3877084,156.861404 L49.3877084,144.214383 C36.4703568,142.995957 24.8329037,137.212255 16.1235482,128.508851 C6.28076309,118.67183 0.167608789,105.093957 0.167608789,90.1599149 L0.167608789,55.5088511 C0.167608789,52.6888511 2.45788613,50.400766 5.27868691,50.400766 L13.9666895,50.4 Z M54.5,133.919149 C66.7203477,133.919149 76.7896484,130.143404 85.6480273,121.289574 C93.6380254,113.304255 98.6043379,102.279362 98.6043379,90.1597872 L98.6043379,74.846383 L10.3909785,74.846383 L10.3909785,90.1597872 C10.3909785,102.279149 15.357291,113.304468 23.3472891,121.289574 C32.1914043,130.128511 42.2055664,133.919149 54.4974453,133.919149 L54.5,133.919149 Z M53.6941664,84.7319149 C55.0579863,82.2776596 58.1631664,81.3934043 60.6188598,82.7563404 C63.0745531,84.1193617 63.9593266,87.2227234 62.5955918,89.6769787 L57.3665723,99.0286809 L59.8314199,98.5341702 C62.5864375,97.9856383 65.2718398,99.7708723 65.8206719,102.523532 C66.0651555,103.756915 65.8447881,104.972043 65.2776305,105.99183 L54.6622652,124.986936 C53.2984453,127.441191 50.1932652,128.325447 47.7375719,126.962511 C45.2818785,125.599574 44.3971051,122.496128 45.7608398,120.041872 L50.986666,110.693362 L48.6056973,111.172915 C47.4381199,111.426404 46.1766152,111.272649 45.0514883,110.648489 C42.5957949,109.285468 41.7110215,106.182106 43.0747562,103.727851 L53.6926762,84.7327447 L53.6941664,84.7319149 Z M10.3922133,64.6297872 L98.6055727,64.6297872 L98.6055727,60.616383 L10.3922133,60.616383 L10.3922133,64.6297872 Z M80.1564711,50.3993617 L84.8060023,50.3993617 L84.8060023,12.5376596 C84.8060023,11.8985319 84.5465312,11.307617 84.1332254,10.8878936 C83.7140863,10.4748298 83.1219949,10.2155106 82.4824928,10.2155106 C81.8429906,10.2155106 81.2608625,10.4781489 80.8409145,10.8970213 C80.4184543,11.319234 80.1556621,11.9010213 80.1556621,12.5376383 L80.1556621,50.3993404 L80.1564711,50.3993617 Z M24.1896547,50.3993617 L28.8391859,50.3993617 L28.8391859,12.5376596 C28.8391859,11.9010213 28.5763937,11.319234 28.1539336,10.8970426 C27.7347945,10.4781489 27.1518574,10.2155319 26.5156764,10.2155319 C25.8728531,10.2155319 25.2815707,10.4748511 24.8624529,10.8879149 C24.4491471,11.3068085 24.189676,11.8985532 24.189676,12.5376809 L24.1896547,50.3993617 Z" id="Shape"></path>
            </g>
            <g id="noun-plug-in-5263410" transform="translate(1388.500000, 1034.000000) scale(-1, -1) translate(-1388.500000, -1034.000000) translate(1334.000000, 919.000000)" fill-rule="nonzero" fill="#BDB4E8">
                <path d="M13.9666895,50.4 L13.9666895,12.5382979 C13.9666895,9.10085106 15.3787504,5.96744681 17.648207,3.69680851 C19.9384844,1.4112766 23.0735117,0 26.5131855,0 C29.9677617,0 33.1093887,1.41123404 35.3781641,3.6793617 C37.6501328,5.95 39.0622363,9.08914894 39.0622363,12.5391489 L39.0622363,50.4008511 L69.9335059,50.4008511 L69.9335059,12.5391489 C69.9335059,9.08914894 71.3455668,5.95 73.6175781,3.6793617 C75.8869922,1.4112766 79.0279805,7.55896527e-15 82.480002,7.55896527e-15 C85.9228691,7.55896527e-15 89.0578965,1.41123404 91.3298652,3.6793617 C93.6167363,5.96829787 95.0288398,9.10148936 95.0288398,12.5391489 L95.0288398,50.4008511 L103.715842,50.4008511 C106.537494,50.4008511 108.82692,52.6897872 108.82692,55.5089362 L108.82692,90.16 C108.82692,105.093617 102.713766,118.672766 92.8709805,128.508936 C84.1633281,137.211489 72.5250234,142.99617 59.6110781,144.214468 L59.6110781,156.861489 C59.6110781,158.625957 60.329584,160.226596 61.4755316,161.381915 C62.6314639,162.528021 64.2331039,163.245277 65.9986059,163.245277 L90.6364379,163.245277 C95.5669848,163.245277 100.062596,165.274872 103.324293,168.532085 C106.589184,171.776766 108.6142,176.273149 108.6142,181.212511 C108.6142,186.146128 106.589248,190.636553 103.336854,193.890383 C100.081118,197.162511 95.5821,199.185489 90.6366508,199.185489 L65.8774711,199.601872 C64.1518861,199.6293 62.5768148,200.36483 61.435934,201.525915 C60.3107645,202.672021 59.613058,204.255277 59.613058,206.007191 L59.613058,224.679957 C59.613058,227.499957 57.3227807,229.788043 54.5019799,229.788043 C51.6803275,229.788043 49.3909018,227.499106 49.3909018,224.679957 L49.3909018,206.007191 C49.3909018,201.50166 51.2162686,197.391872 54.1700834,194.384851 C57.1056322,191.393574 61.1946225,189.505277 65.7202514,189.427191 L90.6369701,188.968426 C92.7675795,188.968426 94.7102064,188.090766 96.1140072,186.688638 C97.5169139,185.295681 98.391724,183.350128 98.391724,181.212468 C98.391724,179.086468 97.5135502,177.14417 96.110601,175.742043 C94.7168273,174.330809 92.7767338,173.462255 90.6369701,173.462255 L65.9991381,173.462255 C61.4428529,173.462255 57.2880795,171.595574 54.2792963,168.59183 C51.2556107,165.567362 49.3877084,161.420979 49.3877084,156.861404 L49.3877084,144.214383 C36.4703568,142.995957 24.8329037,137.212255 16.1235482,128.508851 C6.28076309,118.67183 0.167608789,105.093957 0.167608789,90.1599149 L0.167608789,55.5088511 C0.167608789,52.6888511 2.45788613,50.400766 5.27868691,50.400766 L13.9666895,50.4 Z M54.5,133.919149 C66.7203477,133.919149 76.7896484,130.143404 85.6480273,121.289574 C93.6380254,113.304255 98.6043379,102.279362 98.6043379,90.1597872 L98.6043379,74.846383 L10.3909785,74.846383 L10.3909785,90.1597872 C10.3909785,102.279149 15.357291,113.304468 23.3472891,121.289574 C32.1914043,130.128511 42.2055664,133.919149 54.4974453,133.919149 L54.5,133.919149 Z M53.6941664,84.7319149 C55.0579863,82.2776596 58.1631664,81.3934043 60.6188598,82.7563404 C63.0745531,84.1193617 63.9593266,87.2227234 62.5955918,89.6769787 L57.3665723,99.0286809 L59.8314199,98.5341702 C62.5864375,97.9856383 65.2718398,99.7708723 65.8206719,102.523532 C66.0651555,103.756915 65.8447881,104.972043 65.2776305,105.99183 L54.6622652,124.986936 C53.2984453,127.441191 50.1932652,128.325447 47.7375719,126.962511 C45.2818785,125.599574 44.3971051,122.496128 45.7608398,120.041872 L50.986666,110.693362 L48.6056973,111.172915 C47.4381199,111.426404 46.1766152,111.272649 45.0514883,110.648489 C42.5957949,109.285468 41.7110215,106.182106 43.0747562,103.727851 L53.6926762,84.7327447 L53.6941664,84.7319149 Z M10.3922133,64.6297872 L98.6055727,64.6297872 L98.6055727,60.616383 L10.3922133,60.616383 L10.3922133,64.6297872 Z M80.1564711,50.3993617 L84.8060023,50.3993617 L84.8060023,12.5376596 C84.8060023,11.8985319 84.5465312,11.307617 84.1332254,10.8878936 C83.7140863,10.4748298 83.1219949,10.2155106 82.4824928,10.2155106 C81.8429906,10.2155106 81.2608625,10.4781489 80.8409145,10.8970213 C80.4184543,11.319234 80.1556621,11.9010213 80.1556621,12.5376383 L80.1556621,50.3993404 L80.1564711,50.3993617 Z M24.1896547,50.3993617 L28.8391859,50.3993617 L28.8391859,12.5376596 C28.8391859,11.9010213 28.5763937,11.319234 28.1539336,10.8970426 C27.7347945,10.4781489 27.1518574,10.2155319 26.5156764,10.2155319 C25.8728531,10.2155319 25.2815707,10.4748511 24.8624529,10.8879149 C24.4491471,11.3068085 24.189676,11.8985532 24.189676,12.5376809 L24.1896547,50.3993617 Z" id="Shape"></path>
            </g>
            <g id="noun-plug-in-5263410" transform="translate(1588.500000, 1037.000000) scale(-1, -1) translate(-1588.500000, -1037.000000) translate(1534.000000, 922.000000)" fill-rule="nonzero" fill="#E8B4D9">
                <path d="M13.9666895,50.4 L13.9666895,12.5382979 C13.9666895,9.10085106 15.3787504,5.96744681 17.648207,3.69680851 C19.9384844,1.4112766 23.0735117,0 26.5131855,0 C29.9677617,0 33.1093887,1.41123404 35.3781641,3.6793617 C37.6501328,5.95 39.0622363,9.08914894 39.0622363,12.5391489 L39.0622363,50.4008511 L69.9335059,50.4008511 L69.9335059,12.5391489 C69.9335059,9.08914894 71.3455668,5.95 73.6175781,3.6793617 C75.8869922,1.4112766 79.0279805,7.55896527e-15 82.480002,7.55896527e-15 C85.9228691,7.55896527e-15 89.0578965,1.41123404 91.3298652,3.6793617 C93.6167363,5.96829787 95.0288398,9.10148936 95.0288398,12.5391489 L95.0288398,50.4008511 L103.715842,50.4008511 C106.537494,50.4008511 108.82692,52.6897872 108.82692,55.5089362 L108.82692,90.16 C108.82692,105.093617 102.713766,118.672766 92.8709805,128.508936 C84.1633281,137.211489 72.5250234,142.99617 59.6110781,144.214468 L59.6110781,156.861489 C59.6110781,158.625957 60.329584,160.226596 61.4755316,161.381915 C62.6314639,162.528021 64.2331039,163.245277 65.9986059,163.245277 L90.6364379,163.245277 C95.5669848,163.245277 100.062596,165.274872 103.324293,168.532085 C106.589184,171.776766 108.6142,176.273149 108.6142,181.212511 C108.6142,186.146128 106.589248,190.636553 103.336854,193.890383 C100.081118,197.162511 95.5821,199.185489 90.6366508,199.185489 L65.8774711,199.601872 C64.1518861,199.6293 62.5768148,200.36483 61.435934,201.525915 C60.3107645,202.672021 59.613058,204.255277 59.613058,206.007191 L59.613058,224.679957 C59.613058,227.499957 57.3227807,229.788043 54.5019799,229.788043 C51.6803275,229.788043 49.3909018,227.499106 49.3909018,224.679957 L49.3909018,206.007191 C49.3909018,201.50166 51.2162686,197.391872 54.1700834,194.384851 C57.1056322,191.393574 61.1946225,189.505277 65.7202514,189.427191 L90.6369701,188.968426 C92.7675795,188.968426 94.7102064,188.090766 96.1140072,186.688638 C97.5169139,185.295681 98.391724,183.350128 98.391724,181.212468 C98.391724,179.086468 97.5135502,177.14417 96.110601,175.742043 C94.7168273,174.330809 92.7767338,173.462255 90.6369701,173.462255 L65.9991381,173.462255 C61.4428529,173.462255 57.2880795,171.595574 54.2792963,168.59183 C51.2556107,165.567362 49.3877084,161.420979 49.3877084,156.861404 L49.3877084,144.214383 C36.4703568,142.995957 24.8329037,137.212255 16.1235482,128.508851 C6.28076309,118.67183 0.167608789,105.093957 0.167608789,90.1599149 L0.167608789,55.5088511 C0.167608789,52.6888511 2.45788613,50.400766 5.27868691,50.400766 L13.9666895,50.4 Z M54.5,133.919149 C66.7203477,133.919149 76.7896484,130.143404 85.6480273,121.289574 C93.6380254,113.304255 98.6043379,102.279362 98.6043379,90.1597872 L98.6043379,74.846383 L10.3909785,74.846383 L10.3909785,90.1597872 C10.3909785,102.279149 15.357291,113.304468 23.3472891,121.289574 C32.1914043,130.128511 42.2055664,133.919149 54.4974453,133.919149 L54.5,133.919149 Z M53.6941664,84.7319149 C55.0579863,82.2776596 58.1631664,81.3934043 60.6188598,82.7563404 C63.0745531,84.1193617 63.9593266,87.2227234 62.5955918,89.6769787 L57.3665723,99.0286809 L59.8314199,98.5341702 C62.5864375,97.9856383 65.2718398,99.7708723 65.8206719,102.523532 C66.0651555,103.756915 65.8447881,104.972043 65.2776305,105.99183 L54.6622652,124.986936 C53.2984453,127.441191 50.1932652,128.325447 47.7375719,126.962511 C45.2818785,125.599574 44.3971051,122.496128 45.7608398,120.041872 L50.986666,110.693362 L48.6056973,111.172915 C47.4381199,111.426404 46.1766152,111.272649 45.0514883,110.648489 C42.5957949,109.285468 41.7110215,106.182106 43.0747562,103.727851 L53.6926762,84.7327447 L53.6941664,84.7319149 Z M10.3922133,64.6297872 L98.6055727,64.6297872 L98.6055727,60.616383 L10.3922133,60.616383 L10.3922133,64.6297872 Z M80.1564711,50.3993617 L84.8060023,50.3993617 L84.8060023,12.5376596 C84.8060023,11.8985319 84.5465312,11.307617 84.1332254,10.8878936 C83.7140863,10.4748298 83.1219949,10.2155106 82.4824928,10.2155106 C81.8429906,10.2155106 81.2608625,10.4781489 80.8409145,10.8970213 C80.4184543,11.319234 80.1556621,11.9010213 80.1556621,12.5376383 L80.1556621,50.3993404 L80.1564711,50.3993617 Z M24.1896547,50.3993617 L28.8391859,50.3993617 L28.8391859,12.5376596 C28.8391859,11.9010213 28.5763937,11.319234 28.1539336,10.8970426 C27.7347945,10.4781489 27.1518574,10.2155319 26.5156764,10.2155319 C25.8728531,10.2155319 25.2815707,10.4748511 24.8624529,10.8879149 C24.4491471,11.3068085 24.189676,11.8985532 24.189676,12.5376809 L24.1896547,50.3993617 Z" id="Shape"></path>
            </g>
            <g id="noun-robot-5494503" transform="translate(892.000000, 455.000000)" fill-rule="nonzero" fill="#000000">
                <path d="M191.179579,85.9025424 C189.8927,70.6205686 177.485769,58.6687797 162.194231,57.9815593 C144.880611,56.9610548 124.506209,56.4296989 101.798663,56.3522095 L101.798663,43.3375315 C111.073974,40.8440553 117.952339,32.5118629 118.136679,22.4729553 C118.355536,10.2801078 108.663065,0.219768814 96.4966419,0.000141694915 C93.5700055,0.000141694915 91.1944441,2.38079339 91.1944441,5.31370102 C91.1944441,8.24660864 93.5700055,10.6272603 96.4966419,10.6272603 C111.512643,10.8825592 111.512643,33.2701078 96.4966419,33.5251586 C90.1905614,33.5251586 85.0719963,28.3956256 85.0719963,22.0760324 C85.0505949,15.1331586 74.4958791,15.126251 74.4676007,22.0760324 C74.4745047,32.4270231 81.6075403,41.0418968 91.1944441,43.4365408 L91.1944441,56.3523866 C68.4868984,56.4305686 48.1123196,56.9902971 30.7988764,57.9817364 C15.5073379,58.6687619 3.10019505,70.6207458 1.81352839,85.9027195 C0.682675641,99.5546703 0.109649451,115.268991 0.109649451,132.662042 C1.88394158,162.24794 -6.93166923,203.707872 30.7987703,207.342347 C66.7264626,209.54588 126.273679,209.552787 162.194301,207.335428 C169.094051,206.874636 168.543153,196.354072 161.572265,196.708309 C140.900763,198.734724 52.1561114,198.727108 31.4563312,196.708309 C21.3890483,196.424636 13.1531444,188.574667 12.3684191,178.507597 C10.1411426,152.65536 10.1487424,112.640716 12.3684191,86.7884788 C13.1533918,76.7210551 21.3890483,68.8711568 31.4563312,68.587767 C44.1243422,67.8433196 65.7155986,66.9508011 96.4966243,66.9508011 C127.27765,66.9508011 148.875269,67.8716763 161.522778,68.6154329 C171.575568,68.9198644 179.790617,76.7628905 180.575342,86.8161448 C181.685481,100.163629 182.244015,115.587297 182.244015,132.675704 C182.244015,149.764111 181.685481,165.187602 180.575342,178.535263 C179.981602,185.442891 190.599854,186.385162 191.179738,179.420857 C193.448372,152.978814 193.448372,112.342484 191.179047,85.9022126 L191.179579,85.9025424 Z" id="Shape"></path>
                <path d="M96.5,172.874881 C104.431911,174.837002 139.412454,164.932881 130.511832,153.67522 C128.419231,151.62029 125.061172,151.648806 123.010812,153.745791 C108.284842,165.506115 84.7006658,165.64108 69.9959038,153.774159 C67.988315,151.63492 64.6302564,151.535202 62.5024844,153.547234 C53.276837,164.819242 88.5680888,174.879404 96.5001767,172.874421 L96.5,172.874881 Z" id="Shape"></path>
                <path d="M80.3247619,111.768949 C79.6813225,86.3276271 42.46,86.3276271 41.8237363,111.768949 C42.4740862,137.217356 79.6602198,137.196102 80.3247619,111.768949 Z M61.0742491,120.433947 C49.706337,120.242996 49.7132299,103.295593 61.0742491,103.104659 L61.0742491,103.083212 C72.4421612,103.288705 72.4421612,120.242289 61.0742491,120.433932 L61.0742491,120.433947 Z" id="Shape"></path>
                <path d="M151.183333,111.768949 C150.539894,86.3276271 113.325641,86.3276271 112.682308,111.768949 C113.332658,137.217356 150.518791,137.196102 151.183333,111.768949 Z M131.932821,120.433947 C120.564908,120.242996 120.571801,103.295593 131.932821,103.104659 L131.932821,103.083212 C143.300733,103.288705 143.300733,120.242289 131.932821,120.433932 L131.932821,120.433947 Z" id="Shape"></path>
            </g>
            <path d="M388,922 L1591,922" id="Line" stroke="#000000" stroke-width="8" stroke-linecap="round"></path>
            <text id="choices" font-family="Palatino-Italic, Palatino" font-size="80" font-style="italic" font-weight="normal" fill="#000000">
                <tspan x="504" y="402">choices</tspan>
            </text>
            <text id="feedback" font-family="Palatino-Italic, Palatino" font-size="80" font-style="italic" font-weight="normal" fill="#000000">
                <tspan x="1248" y="387">feedback</tspan>
            </text>
            <g id="noun-dataset-2200230" transform="translate(319.000000, 1170.000000)" fill-rule="nonzero" fill="#E8B4B4">
                <path d="M68.5,0 C34.25,0 0,8.56410256 0,25.6923077 L0,141.307692 C0,158.435897 34.25,167 68.5,167 C102.75,167 137,158.435897 137,141.307692 L137,25.6923077 C137,8.56410256 102.75,0 68.5,0 Z M128.4375,141.307692 C128.4375,148.330256 105.061875,158.435897 68.5,158.435897 C31.938125,158.435897 8.5625,148.330256 8.5625,141.307692 L8.5625,115.615385 C20.8925,124.179487 44.781875,128.461538 68.5,128.461538 C92.218125,128.461538 116.1075,124.179487 128.4375,115.872308 L128.4375,141.307692 Z M128.4375,102.769231 C128.4375,109.791795 105.061875,119.897436 68.5,119.897436 C31.938125,119.897436 8.5625,109.791795 8.5625,102.769231 L8.5625,77.0769231 C20.8925,85.6410256 44.781875,89.6661538 68.5,89.6661538 C92.218125,89.6661538 116.1075,85.6410256 128.4375,77.0769231 L128.4375,102.769231 Z M128.4375,64.2307692 C128.4375,71.2533333 105.061875,81.3589744 68.5,81.3589744 C31.938125,81.3589744 8.5625,71.2533333 8.5625,64.2307692 L8.5625,38.5384615 C20.8925,47.1025641 44.781875,51.3846154 68.5,51.3846154 C92.218125,51.3846154 116.1075,47.1025641 128.4375,38.7953846 L128.4375,64.2307692 Z M68.5,42.8205128 C31.938125,42.8205128 8.5625,32.7148718 8.5625,25.6923077 C8.5625,18.6697436 31.938125,8.56410256 68.5,8.56410256 C105.061875,8.56410256 128.4375,18.6697436 128.4375,25.6923077 C128.4375,32.7148718 105.061875,42.8205128 68.5,42.8205128 Z" id="Shape"></path>
            </g>
            <g id="noun-dataset-2200230" transform="translate(519.000000, 1170.000000)" fill-rule="nonzero" fill="#E8C7B4">
                <path d="M68.5,0 C34.25,0 0,8.56410256 0,25.6923077 L0,141.307692 C0,158.435897 34.25,167 68.5,167 C102.75,167 137,158.435897 137,141.307692 L137,25.6923077 C137,8.56410256 102.75,0 68.5,0 Z M128.4375,141.307692 C128.4375,148.330256 105.061875,158.435897 68.5,158.435897 C31.938125,158.435897 8.5625,148.330256 8.5625,141.307692 L8.5625,115.615385 C20.8925,124.179487 44.781875,128.461538 68.5,128.461538 C92.218125,128.461538 116.1075,124.179487 128.4375,115.872308 L128.4375,141.307692 Z M128.4375,102.769231 C128.4375,109.791795 105.061875,119.897436 68.5,119.897436 C31.938125,119.897436 8.5625,109.791795 8.5625,102.769231 L8.5625,77.0769231 C20.8925,85.6410256 44.781875,89.6661538 68.5,89.6661538 C92.218125,89.6661538 116.1075,85.6410256 128.4375,77.0769231 L128.4375,102.769231 Z M128.4375,64.2307692 C128.4375,71.2533333 105.061875,81.3589744 68.5,81.3589744 C31.938125,81.3589744 8.5625,71.2533333 8.5625,64.2307692 L8.5625,38.5384615 C20.8925,47.1025641 44.781875,51.3846154 68.5,51.3846154 C92.218125,51.3846154 116.1075,47.1025641 128.4375,38.7953846 L128.4375,64.2307692 Z M68.5,42.8205128 C31.938125,42.8205128 8.5625,32.7148718 8.5625,25.6923077 C8.5625,18.6697436 31.938125,8.56410256 68.5,8.56410256 C105.061875,8.56410256 128.4375,18.6697436 128.4375,25.6923077 C128.4375,32.7148718 105.061875,42.8205128 68.5,42.8205128 Z" id="Shape"></path>
            </g>
            <g id="noun-dataset-2200230" transform="translate(919.000000, 1175.000000)" fill-rule="nonzero" fill="#B4E8B7">
                <path d="M68.5,0 C34.25,0 0,8.56410256 0,25.6923077 L0,141.307692 C0,158.435897 34.25,167 68.5,167 C102.75,167 137,158.435897 137,141.307692 L137,25.6923077 C137,8.56410256 102.75,0 68.5,0 Z M128.4375,141.307692 C128.4375,148.330256 105.061875,158.435897 68.5,158.435897 C31.938125,158.435897 8.5625,148.330256 8.5625,141.307692 L8.5625,115.615385 C20.8925,124.179487 44.781875,128.461538 68.5,128.461538 C92.218125,128.461538 116.1075,124.179487 128.4375,115.872308 L128.4375,141.307692 Z M128.4375,102.769231 C128.4375,109.791795 105.061875,119.897436 68.5,119.897436 C31.938125,119.897436 8.5625,109.791795 8.5625,102.769231 L8.5625,77.0769231 C20.8925,85.6410256 44.781875,89.6661538 68.5,89.6661538 C92.218125,89.6661538 116.1075,85.6410256 128.4375,77.0769231 L128.4375,102.769231 Z M128.4375,64.2307692 C128.4375,71.2533333 105.061875,81.3589744 68.5,81.3589744 C31.938125,81.3589744 8.5625,71.2533333 8.5625,64.2307692 L8.5625,38.5384615 C20.8925,47.1025641 44.781875,51.3846154 68.5,51.3846154 C92.218125,51.3846154 116.1075,47.1025641 128.4375,38.7953846 L128.4375,64.2307692 Z M68.5,42.8205128 C31.938125,42.8205128 8.5625,32.7148718 8.5625,25.6923077 C8.5625,18.6697436 31.938125,8.56410256 68.5,8.56410256 C105.061875,8.56410256 128.4375,18.6697436 128.4375,25.6923077 C128.4375,32.7148718 105.061875,42.8205128 68.5,42.8205128 Z" id="Shape"></path>
            </g>
            <g id="noun-dataset-2200230" transform="translate(1119.000000, 1175.000000)" fill-rule="nonzero" fill="#B4DDE8">
                <path d="M68.5,0 C34.25,0 0,8.56410256 0,25.6923077 L0,141.307692 C0,158.435897 34.25,167 68.5,167 C102.75,167 137,158.435897 137,141.307692 L137,25.6923077 C137,8.56410256 102.75,0 68.5,0 Z M128.4375,141.307692 C128.4375,148.330256 105.061875,158.435897 68.5,158.435897 C31.938125,158.435897 8.5625,148.330256 8.5625,141.307692 L8.5625,115.615385 C20.8925,124.179487 44.781875,128.461538 68.5,128.461538 C92.218125,128.461538 116.1075,124.179487 128.4375,115.872308 L128.4375,141.307692 Z M128.4375,102.769231 C128.4375,109.791795 105.061875,119.897436 68.5,119.897436 C31.938125,119.897436 8.5625,109.791795 8.5625,102.769231 L8.5625,77.0769231 C20.8925,85.6410256 44.781875,89.6661538 68.5,89.6661538 C92.218125,89.6661538 116.1075,85.6410256 128.4375,77.0769231 L128.4375,102.769231 Z M128.4375,64.2307692 C128.4375,71.2533333 105.061875,81.3589744 68.5,81.3589744 C31.938125,81.3589744 8.5625,71.2533333 8.5625,64.2307692 L8.5625,38.5384615 C20.8925,47.1025641 44.781875,51.3846154 68.5,51.3846154 C92.218125,51.3846154 116.1075,47.1025641 128.4375,38.7953846 L128.4375,64.2307692 Z M68.5,42.8205128 C31.938125,42.8205128 8.5625,32.7148718 8.5625,25.6923077 C8.5625,18.6697436 31.938125,8.56410256 68.5,8.56410256 C105.061875,8.56410256 128.4375,18.6697436 128.4375,25.6923077 C128.4375,32.7148718 105.061875,42.8205128 68.5,42.8205128 Z" id="Shape"></path>
            </g>
            <g id="noun-dataset-2200230" transform="translate(1319.000000, 1175.000000)" fill-rule="nonzero" fill="#BDB4E8">
                <path d="M68.5,0 C34.25,0 0,8.56410256 0,25.6923077 L0,141.307692 C0,158.435897 34.25,167 68.5,167 C102.75,167 137,158.435897 137,141.307692 L137,25.6923077 C137,8.56410256 102.75,0 68.5,0 Z M128.4375,141.307692 C128.4375,148.330256 105.061875,158.435897 68.5,158.435897 C31.938125,158.435897 8.5625,148.330256 8.5625,141.307692 L8.5625,115.615385 C20.8925,124.179487 44.781875,128.461538 68.5,128.461538 C92.218125,128.461538 116.1075,124.179487 128.4375,115.872308 L128.4375,141.307692 Z M128.4375,102.769231 C128.4375,109.791795 105.061875,119.897436 68.5,119.897436 C31.938125,119.897436 8.5625,109.791795 8.5625,102.769231 L8.5625,77.0769231 C20.8925,85.6410256 44.781875,89.6661538 68.5,89.6661538 C92.218125,89.6661538 116.1075,85.6410256 128.4375,77.0769231 L128.4375,102.769231 Z M128.4375,64.2307692 C128.4375,71.2533333 105.061875,81.3589744 68.5,81.3589744 C31.938125,81.3589744 8.5625,71.2533333 8.5625,64.2307692 L8.5625,38.5384615 C20.8925,47.1025641 44.781875,51.3846154 68.5,51.3846154 C92.218125,51.3846154 116.1075,47.1025641 128.4375,38.7953846 L128.4375,64.2307692 Z M68.5,42.8205128 C31.938125,42.8205128 8.5625,32.7148718 8.5625,25.6923077 C8.5625,18.6697436 31.938125,8.56410256 68.5,8.56410256 C105.061875,8.56410256 128.4375,18.6697436 128.4375,25.6923077 C128.4375,32.7148718 105.061875,42.8205128 68.5,42.8205128 Z" id="Shape"></path>
                <path d="M68.5,0 C34.25,0 0,8.56410256 0,25.6923077 L0,141.307692 C0,158.435897 34.25,167 68.5,167 C102.75,167 137,158.435897 137,141.307692 L137,25.6923077 C137,8.56410256 102.75,0 68.5,0 Z M128.4375,141.307692 C128.4375,148.330256 105.061875,158.435897 68.5,158.435897 C31.938125,158.435897 8.5625,148.330256 8.5625,141.307692 L8.5625,115.615385 C20.8925,124.179487 44.781875,128.461538 68.5,128.461538 C92.218125,128.461538 116.1075,124.179487 128.4375,115.872308 L128.4375,141.307692 Z M128.4375,102.769231 C128.4375,109.791795 105.061875,119.897436 68.5,119.897436 C31.938125,119.897436 8.5625,109.791795 8.5625,102.769231 L8.5625,77.0769231 C20.8925,85.6410256 44.781875,89.6661538 68.5,89.6661538 C92.218125,89.6661538 116.1075,85.6410256 128.4375,77.0769231 L128.4375,102.769231 Z M128.4375,64.2307692 C128.4375,71.2533333 105.061875,81.3589744 68.5,81.3589744 C31.938125,81.3589744 8.5625,71.2533333 8.5625,64.2307692 L8.5625,38.5384615 C20.8925,47.1025641 44.781875,51.3846154 68.5,51.3846154 C92.218125,51.3846154 116.1075,47.1025641 128.4375,38.7953846 L128.4375,64.2307692 Z M68.5,42.8205128 C31.938125,42.8205128 8.5625,32.7148718 8.5625,25.6923077 C8.5625,18.6697436 31.938125,8.56410256 68.5,8.56410256 C105.061875,8.56410256 128.4375,18.6697436 128.4375,25.6923077 C128.4375,32.7148718 105.061875,42.8205128 68.5,42.8205128 Z" id="Shape"></path>
            </g>
            <g id="noun-dataset-2200230" transform="translate(1519.000000, 1175.000000)" fill-rule="nonzero">
                <path d="M68.5,0 C34.25,0 0,8.56410256 0,25.6923077 L0,141.307692 C0,158.435897 34.25,167 68.5,167 C102.75,167 137,158.435897 137,141.307692 L137,25.6923077 C137,8.56410256 102.75,0 68.5,0 Z M128.4375,141.307692 C128.4375,148.330256 105.061875,158.435897 68.5,158.435897 C31.938125,158.435897 8.5625,148.330256 8.5625,141.307692 L8.5625,115.615385 C20.8925,124.179487 44.781875,128.461538 68.5,128.461538 C92.218125,128.461538 116.1075,124.179487 128.4375,115.872308 L128.4375,141.307692 Z M128.4375,102.769231 C128.4375,109.791795 105.061875,119.897436 68.5,119.897436 C31.938125,119.897436 8.5625,109.791795 8.5625,102.769231 L8.5625,77.0769231 C20.8925,85.6410256 44.781875,89.6661538 68.5,89.6661538 C92.218125,89.6661538 116.1075,85.6410256 128.4375,77.0769231 L128.4375,102.769231 Z M128.4375,64.2307692 C128.4375,71.2533333 105.061875,81.3589744 68.5,81.3589744 C31.938125,81.3589744 8.5625,71.2533333 8.5625,64.2307692 L8.5625,38.5384615 C20.8925,47.1025641 44.781875,51.3846154 68.5,51.3846154 C92.218125,51.3846154 116.1075,47.1025641 128.4375,38.7953846 L128.4375,64.2307692 Z M68.5,42.8205128 C31.938125,42.8205128 8.5625,32.7148718 8.5625,25.6923077 C8.5625,18.6697436 31.938125,8.56410256 68.5,8.56410256 C105.061875,8.56410256 128.4375,18.6697436 128.4375,25.6923077 C128.4375,32.7148718 105.061875,42.8205128 68.5,42.8205128 Z" id="Shape" fill="#BDB4E8"></path>
                <path d="M68.5,0 C34.25,0 0,8.56410256 0,25.6923077 L0,141.307692 C0,158.435897 34.25,167 68.5,167 C102.75,167 137,158.435897 137,141.307692 L137,25.6923077 C137,8.56410256 102.75,0 68.5,0 Z M128.4375,141.307692 C128.4375,148.330256 105.061875,158.435897 68.5,158.435897 C31.938125,158.435897 8.5625,148.330256 8.5625,141.307692 L8.5625,115.615385 C20.8925,124.179487 44.781875,128.461538 68.5,128.461538 C92.218125,128.461538 116.1075,124.179487 128.4375,115.872308 L128.4375,141.307692 Z M128.4375,102.769231 C128.4375,109.791795 105.061875,119.897436 68.5,119.897436 C31.938125,119.897436 8.5625,109.791795 8.5625,102.769231 L8.5625,77.0769231 C20.8925,85.6410256 44.781875,89.6661538 68.5,89.6661538 C92.218125,89.6661538 116.1075,85.6410256 128.4375,77.0769231 L128.4375,102.769231 Z M128.4375,64.2307692 C128.4375,71.2533333 105.061875,81.3589744 68.5,81.3589744 C31.938125,81.3589744 8.5625,71.2533333 8.5625,64.2307692 L8.5625,38.5384615 C20.8925,47.1025641 44.781875,51.3846154 68.5,51.3846154 C92.218125,51.3846154 116.1075,47.1025641 128.4375,38.7953846 L128.4375,64.2307692 Z M68.5,42.8205128 C31.938125,42.8205128 8.5625,32.7148718 8.5625,25.6923077 C8.5625,18.6697436 31.938125,8.56410256 68.5,8.56410256 C105.061875,8.56410256 128.4375,18.6697436 128.4375,25.6923077 C128.4375,32.7148718 105.061875,42.8205128 68.5,42.8205128 Z" id="Shape" fill="#E8B4D9"></path>
            </g>
            <g id="noun-dataset-2200230" transform="translate(719.000000, 1175.000000)" fill-rule="nonzero" fill="#E8DAB4">
                <path d="M68.5,0 C34.25,0 0,8.56410256 0,25.6923077 L0,141.307692 C0,158.435897 34.25,167 68.5,167 C102.75,167 137,158.435897 137,141.307692 L137,25.6923077 C137,8.56410256 102.75,0 68.5,0 Z M128.4375,141.307692 C128.4375,148.330256 105.061875,158.435897 68.5,158.435897 C31.938125,158.435897 8.5625,148.330256 8.5625,141.307692 L8.5625,115.615385 C20.8925,124.179487 44.781875,128.461538 68.5,128.461538 C92.218125,128.461538 116.1075,124.179487 128.4375,115.872308 L128.4375,141.307692 Z M128.4375,102.769231 C128.4375,109.791795 105.061875,119.897436 68.5,119.897436 C31.938125,119.897436 8.5625,109.791795 8.5625,102.769231 L8.5625,77.0769231 C20.8925,85.6410256 44.781875,89.6661538 68.5,89.6661538 C92.218125,89.6661538 116.1075,85.6410256 128.4375,77.0769231 L128.4375,102.769231 Z M128.4375,64.2307692 C128.4375,71.2533333 105.061875,81.3589744 68.5,81.3589744 C31.938125,81.3589744 8.5625,71.2533333 8.5625,64.2307692 L8.5625,38.5384615 C20.8925,47.1025641 44.781875,51.3846154 68.5,51.3846154 C92.218125,51.3846154 116.1075,47.1025641 128.4375,38.7953846 L128.4375,64.2307692 Z M68.5,42.8205128 C31.938125,42.8205128 8.5625,32.7148718 8.5625,25.6923077 C8.5625,18.6697436 31.938125,8.56410256 68.5,8.56410256 C105.061875,8.56410256 128.4375,18.6697436 128.4375,25.6923077 C128.4375,32.7148718 105.061875,42.8205128 68.5,42.8205128 Z" id="Shape"></path>
            </g>
        </g>
    </g>
</svg>